<svg xmlns="http://www.w3.org/2000/svg" viewBox="0 0 512 512" width="64" height="64" fill="none">
  <defs>
    <linearGradient id="leafGrad" x1="0%" y1="0%" x2="100%" y2="100%">
      <stop offset="0%" stop-color="#4ade80" />
      <stop offset="100%" stop-color="#15803d" />
    </linearGradient>
    <linearGradient id="appleGrad" x1="0%" y1="0%" x2="100%" y2="100%">
      <stop offset="0%" stop-color="#22c55e" />
      <stop offset="100%" stop-color="#166534" />
    </linearGradient>
  </defs>
  <!-- Fundo sutil circular elegante -->
  <circle cx="256" cy="256" r="240" fill="#f0fdf4" stroke="#dcfce7" stroke-width="12" />
  
  <!-- Corpo da Maçã/Folha estilizada de forma moderna -->
  <path d="M256 160c-25 0-50-15-80-15-70 0-110 50-110 135 0 90 80 170 190 170 s190-80 190-170c0-85-40-135-110-135-30 0-55 15-80 15z" fill="url(#appleGrad)" />
  
  <!-- Detalhe da Haste -->
  <path d="M256 160c0-30 10-60 30-80" stroke="#854d0e" stroke-width="16" stroke-linecap="round" />
  
  <!-- Folha premium -->
  <path d="M286 80c30 0 70 20 70 50 c0 30-40 40-70 30 c-30-10-50-50-50-70 C236 84 266 80 286 80z" fill="url(#leafGrad)" />
  
  <!-- Um brilho sutil -->
  <path d="M140 240c-10 20-10 60 10 90" stroke="#ffffff" stroke-width="12" stroke-linecap="round" opacity="0.3" />
</svg>